<?xml version="1.0" standalone="no"?>
<!DOCTYPE svg PUBLIC "-//W3C//DTD SVG 20010904//EN"
 "http://www.w3.org/TR/2001/REC-SVG-20010904/DTD/svg10.dtd">
<svg version="1.0" xmlns="http://www.w3.org/2000/svg"
 width="300.000000pt" height="300.000000pt" viewBox="0 0 300.000000 300.000000"
 preserveAspectRatio="xMidYMid meet">

<g transform="translate(0.000000,300.000000) scale(0.100000,-0.100000)"
fill="#000000" stroke="none">
<path d="M1350 2994 c-366 -47 -653 -186 -905 -438 -216 -216 -345 -454 -411
-756 -27 -122 -27 -478 0 -600 66 -302 194 -538 411 -756 224 -225 476 -359
790 -421 125 -24 415 -24 540 0 145 29 276 73 402 137 413 209 703 585 800
1040 26 122 26 478 0 600 -127 593 -588 1052 -1176 1171 -94 19 -370 33 -451
23z m80 -184 c0 -39 -1 -40 -34 -40 -31 0 -207 -28 -213 -33 -1 -2 6 -35 16
-74 l19 -72 -67 -22 c-134 -44 -286 -131 -387 -223 -29 -25 -55 -46 -58 -46
-4 0 -29 21 -57 47 l-50 46 -40 -39 c-22 -21 -56 -63 -76 -91 -20 -29 -40 -53
-44 -53 -14 0 -59 23 -59 30 0 9 66 96 125 163 94 109 257 233 404 306 95 48
284 108 391 125 138 21 130 22 130 -24z m327 14 c246 -43 504 -178 687 -358
75 -74 186 -209 186 -226 0 -8 -59 -35 -64 -29 -35 47 -102 132 -123 157 l-28
33 -50 -51 c-27 -27 -54 -50 -60 -50 -6 0 -26 16 -45 35 -77 80 -265 189 -402
234 l-66 22 20 70 c11 39 18 72 16 74 -7 7 -180 35 -214 35 -32 0 -34 2 -34
33 0 19 3 37 7 40 7 7 45 3 170 -19z m-96 -441 c5 -5 -7 -92 -31 -217 -22
-114 -40 -211 -40 -215 0 -4 19 -14 43 -21 66 -19 116 -48 167 -96 l47 -44
168 145 c92 80 171 145 174 145 23 -2 166 -250 158 -274 -2 -6 -95 -43 -208
-82 -173 -60 -204 -74 -202 -90 1 -10 7 -45 12 -77 6 -37 6 -77 0 -115 -5 -31
-11 -66 -12 -76 -2 -16 29 -30 202 -90 113 -39 206 -76 208 -82 8 -24 -135
-272 -158 -274 -3 0 -82 65 -174 145 l-168 145 -47 -44 c-51 -48 -101 -77
-167 -96 -24 -7 -43 -17 -43 -21 0 -4 18 -101 40 -215 27 -143 36 -212 29
-219 -13 -13 -295 -13 -308 0 -6 7 4 79 30 215 21 113 39 210 39 216 0 7 -24
19 -52 29 -68 22 -113 48 -164 97 l-40 38 -168 -145 c-142 -123 -170 -144
-183 -133 -44 36 -163 251 -148 267 3 3 97 38 208 77 l202 71 -5 29 c-3 16 -5
72 -5 124 0 52 2 108 5 124 l5 29 -202 71 c-111 39 -205 74 -208 77 -15 16
104 231 148 267 13 11 41 -10 183 -133 l168 -145 40 38 c51 49 96 75 164 97
28 10 52 22 52 29 0 6 -18 103 -39 216 -22 113 -37 208 -33 212 19 18 295 19
313 1z m-1305 -323 c-2 -8 -18 -48 -35 -87 -16 -40 -33 -88 -36 -106 l-7 -34
71 -19 c41 -10 70 -23 67 -29 -42 -109 -42 -461 0 -570 3 -6 -26 -19 -67 -29
l-71 -19 7 -34 c3 -18 20 -66 36 -106 43 -103 43 -100 10 -119 l-30 -17 -25
55 c-76 166 -116 356 -116 554 0 198 40 388 116 554 l25 55 30 -17 c18 -10 28
-23 25 -32z m2402 -62 c127 -328 127 -668 0 -995 -22 -57 -43 -103 -48 -103
-5 0 -21 5 -35 12 -30 13 -31 9 19 128 50 120 50 123 -29 145 -74 20 -71 13
-50 130 8 44 14 127 14 185 0 58 -6 141 -14 185 -21 117 -24 110 50 130 79 22
79 25 29 145 -49 118 -49 115 -22 127 13 7 28 12 35 12 6 1 29 -45 51 -101z
m-2275 -1260 c20 -29 54 -71 76 -92 l40 -39 50 46 c28 26 53 47 57 47 3 0 29
-21 58 -46 101 -92 253 -179 387 -223 l67 -22 -19 -72 c-10 -39 -17 -72 -16
-74 6 -5 182 -33 213 -33 33 0 34 -1 34 -41 l0 -40 -47 6 c-417 55 -728 232
-965 549 -21 27 -38 53 -38 56 0 8 39 28 56 29 6 1 27 -23 47 -51z m2122 40
c14 -6 25 -14 25 -18 0 -17 -111 -152 -186 -226 -213 -210 -533 -358 -814
-376 l-45 -3 -3 37 c-3 37 -2 38 31 38 35 0 208 28 215 35 2 2 -5 35 -16 74
l-20 70 66 22 c137 45 325 154 402 234 19 19 39 35 45 35 6 0 33 -23 60 -50
l49 -50 38 42 c20 24 54 67 75 95 21 29 41 53 45 53 4 0 19 -5 33 -12z"/>
</g>
</svg>
